<?xml version="1.0" encoding="UTF-8" standalone="no"?>
<svg
   xmlns:dc="http://purl.org/dc/elements/1.1/"
   xmlns:cc="http://creativecommons.org/ns#"
   xmlns:rdf="http://www.w3.org/1999/02/22-rdf-syntax-ns#"
   xmlns:svg="http://www.w3.org/2000/svg"
   xmlns="http://www.w3.org/2000/svg"
   xmlns:sodipodi="http://sodipodi.sourceforge.net/DTD/sodipodi-0.dtd"
   xmlns:inkscape="http://www.inkscape.org/namespaces/inkscape"
   width="150"
   height="45"
   viewBox="0 0 39.687497 11.906251"
   version="1.1"
   id="svg8"
   inkscape:version="1.0.1 (3bc2e813f5, 2020-09-07)"
   sodipodi:docname="logo.svg">
  <defs
     id="defs2" />
  <sodipodi:namedview
     id="base"
     pagecolor="#007bff"
     bordercolor="#666666"
     borderopacity="1.0"
     inkscape:pageopacity="0"
     inkscape:pageshadow="2"
     inkscape:zoom="8.0733333"
     inkscape:cx="75"
     inkscape:cy="22.5"
     inkscape:document-units="px"
     inkscape:current-layer="layer1"
     inkscape:document-rotation="0"
     showgrid="false"
     showguides="false"
     units="px"
     inkscape:window-width="1366"
     inkscape:window-height="745"
     inkscape:window-x="-8"
     inkscape:window-y="-8"
     inkscape:window-maximized="1"
     inkscape:snap-text-baseline="true"
     inkscape:snap-intersection-paths="true"
     inkscape:snap-global="false" />
  <metadata
     id="metadata5">
    <rdf:RDF>
      <cc:Work
         rdf:about="">
        <dc:format>image/svg+xml</dc:format>
        <dc:type
           rdf:resource="http://purl.org/dc/dcmitype/StillImage" />
        <dc:title></dc:title>
      </cc:Work>
    </rdf:RDF>
  </metadata>
  <g
     inkscape:label="Layer 1"
     inkscape:groupmode="layer"
     id="layer1">
    <text
       xml:space="preserve"
       style="font-style:normal;font-variant:normal;font-weight:normal;font-stretch:normal;font-size:2.97026px;line-height:1.25;font-family:Bahnschrift;-inkscape-font-specification:'Bahnschrift, Normal';font-variant-ligatures:normal;font-variant-caps:normal;font-variant-numeric:normal;font-variant-east-asian:normal;letter-spacing:0px;word-spacing:0px;fill:#e6e6e6;fill-opacity:1;stroke:none;stroke-width:0.37128;"
       x="19.245995"
       y="10.332779"
       id="text116"
       transform="scale(0.941733,1.0618721)"><tspan
         sodipodi:role="line"
         id="tspan114"
         x="19.245995"
         y="10.332779"
         style="font-style:normal;font-variant:normal;font-weight:normal;font-stretch:normal;font-size:2.97026px;font-family:Bahnschrift;-inkscape-font-specification:'Bahnschrift, Normal';font-variant-ligatures:normal;font-variant-caps:normal;font-variant-numeric:normal;font-variant-east-asian:normal;fill:#e6e6e6;stroke-width:0.37128;">Vocal for Local</tspan></text>
    <path
       style="fill:#ffffff;stroke-width:0.0845183"
       d="m 13.538627,5.872172 c 0,-5.74268775 0.0017,-5.80361815 0.156317,-5.80361815 0.154677,0 0.156319,0.060934 0.156319,5.80361815 0,5.742685 -0.0017,5.803616 -0.156319,5.803616 -0.154675,0 -0.156317,-0.06093 -0.156317,-5.803616 z m -9.3666015,4.743347 c -0.2584993,-0.211726 -0.3475362,-0.54828 -0.243021,-0.9186006 0.047722,-0.169082 0.1519787,-0.348233 0.2316843,-0.398114 0.4342132,-0.271742 1.0149434,0.0681 1.0149434,0.593929 0,0.4315966 -0.065263,0.5824226 -0.3182247,0.7353866 -0.2848224,0.172232 -0.463728,0.16894 -0.685382,-0.01261 z m 3.555182,-0.07781 C 7.290154,10.064062 7.5779444,9.2081054 8.1742473,9.2081054 c 0.2076623,0 0.3185722,0.06728 0.4794293,0.290824 0.2539257,0.352883 0.2235632,0.7424086 -0.08241,1.0572626 -0.2615568,0.269147 -0.5851871,0.262062 -0.8440597,-0.01848 z M 3.3110831,8.0428154 C 2.7935951,6.0834687 2.283756,4.0142825 2.283756,3.8734016 c 0,-0.1277719 0.1107616,-0.1490253 0.7766365,-0.1490253 H 3.8370291 L 3.8615234,3.4273401 3.8860177,3.1303048 4.9311144,3.0375111 C 6.0761486,2.9358444 6.0650055,2.9314818 6.0213527,3.4643378 l -0.025045,0.3057358 -1.0382405,0.025526 -1.0382395,0.025526 0.051464,0.8427354 c 0.028304,0.463504 0.074995,0.8733246 0.1037561,0.9107129 0.028756,0.037388 0.4024648,0.028166 0.8304562,-0.020493 0.4279914,-0.048659 0.8775287,-0.08953 0.998971,-0.090827 L 6.1252796,5.4608759 6.0710559,4.6504113 C 6.0334703,4.0885251 6.0436549,3.8205682 6.1042719,3.7767618 6.152357,3.7420053 6.1917011,3.5357901 6.1917011,3.3184986 V 2.9234227 l 0.6838902,-0.059729 c 0.3761388,-0.032847 0.8685393,-0.083583 1.0942228,-0.112736 l 0.4103346,-0.053006 0.00108,0.307566 c 0.00245,0.6972015 0.024799,0.7188464 0.7432146,0.7188464 H 9.7723312 L 9.9478343,2.9475032 10.123337,2.1706407 H 11.2448 12.366266 V 2.5819202 2.9932005 H 11.524107 10.681969 L 10.104913,5.2552412 C 9.7875317,6.4993624 9.4441475,7.8360224 9.3418381,8.2255974 L 9.1558198,8.9339124 H 6.3511282 3.5464356 Z m 2.285866,0.197776 0.6948723,-0.0616 -0.050059,-0.824717 C 6.2142235,6.9006781 6.1917033,6.3475277 6.1917033,6.1250518 c 0,-0.3919039 -0.00668,-0.4030163 -0.2149371,-0.3568138 -0.118215,0.02623 -0.5972505,0.074916 -1.0645242,0.1082009 l -0.8495882,0.060511 0.050433,0.7444712 c 0.027735,0.4094581 0.071597,0.9642783 0.097466,1.2329333 l 0.047044,0.488464 0.3222465,-0.05032 c 0.1772353,-0.02768 0.634939,-0.07804 1.017119,-0.11191 z M 4.6782583,7.6876204 C 4.3821336,7.3413444 4.3916336,6.8205838 4.7006706,6.4592129 5.2200373,5.8518873 6.0791491,6.4316101 5.9194873,7.2816524 5.8009344,7.9128344 5.0741419,8.1505464 4.6782613,7.6876204 Z m 3.9824828,0.299318 c 0.00383,-0.007 -0.029503,-0.562212 -0.07417,-1.2338755 L 8.5053585,5.5318555 7.8760963,5.5900705 C 7.5300027,5.6220905 7.0584009,5.6731075 6.8280935,5.703441 l -0.4187398,0.055153 0.050924,0.787952 c 0.028,0.4333741 0.071499,0.9670374 0.096661,1.1859194 l 0.045747,0.397972 1.0255062,-0.06542 c 0.5640295,-0.03598 1.0286759,-0.07112 1.0325485,-0.07808 z M 7.1901869,7.6070074 c -0.658174,-0.4290847 -0.4120366,-1.5977426 0.33651,-1.5977426 0.3859778,0 0.6870967,0.2987564 0.7473337,0.7414672 0.08684,0.6382084 -0.5936707,1.1758334 -1.0838437,0.8562754 z M 7.736907,5.2857434 C 8.0924182,5.2460065 8.4039467,5.1893367 8.4291943,5.1598139 8.4544449,5.1302929 8.4501626,4.8158037 8.4196651,4.4609538 L 8.3642559,3.8157718 H 7.3244558 6.2846557 l 0.036407,0.5712219 c 0.062523,0.9808146 0.063623,0.9832758 0.4387476,0.9767521 0.1818766,-0.00317 0.6215584,-0.038268 0.9770696,-0.078004 z m 29.049769,1.6119348 c -0.0211,-0.064313 -0.0288,-0.9177215 -0.01707,-1.8964578 l 0.0213,-1.77952 0.293726,-0.028412 c 0.203984,-0.019727 0.307269,0.012873 0.338063,0.1067042 0.039,0.1188471 0.07858,0.1183842 0.328751,-0.00387 0.776769,-0.3795208 1.578659,0.2694598 1.57933,1.2781755 2.95e-4,0.4910778 -0.12214,0.8260918 -0.421555,1.153177 -0.266718,0.2913662 -0.966407,0.3769288 -1.257636,0.1537921 L 37.45525,5.7308643 v 0.6418762 0.6418762 h -0.315088 c -0.183842,0 -0.331072,-0.048712 -0.353462,-0.1169385 z m 1.662572,-1.727505 C 38.598811,5.0250247 38.653832,4.5012256 38.544904,4.2595245 38.416347,3.9742764 38.323127,3.91024 38.033992,3.9085664 c -0.31805,-0.00185 -0.531872,0.2797583 -0.531872,0.7004572 0,0.6017954 0.562088,0.9348199 0.947126,0.5611496 z M 28.72695,6.0071539 C 28.547538,5.9646014 28.293558,5.8649698 28.162552,5.7857506 27.948407,5.6562557 27.932259,5.617419 28.002609,5.4010426 c 0.04304,-0.1323704 0.09481,-0.2719982 0.115046,-0.3102841 0.02023,-0.038285 0.249813,0.015442 0.510176,0.1193987 0.60521,0.2416475 1.050594,0.1558236 1.050594,-0.2024448 0,-0.2386337 -0.163894,-0.3409023 -0.891638,-0.5563804 -0.670474,-0.1985195 -0.955986,-0.8149002 -0.673434,-1.4538358 0.255409,-0.5775537 1.110827,-0.8278023 1.846506,-0.5401839 0.382163,0.1494099 0.418743,0.2141072 0.304079,0.5378161 -0.08143,0.229869 -0.133696,0.274741 -0.265302,0.2277441 -0.307214,-0.1097101 -0.818507,-0.1609394 -1.018992,-0.1020998 -0.143917,0.042235 -0.200047,0.119221 -0.200047,0.2743724 0,0.2353288 0.110088,0.3049685 0.872522,0.5519368 1.589288,0.5148055 0.720075,2.4502855 -0.925169,2.060072 z m -13.763577,-1.8029512 0.0212,-1.8050622 0.332174,-0.017325 0.332176,-0.017325 V 3.821295 5.2780987 h 0.781588 0.781588 v 0.3655866 0.3655822 h -1.134957 -1.134955 z m 2.984295,1.6322378 C 17.381586,5.4327863 17.183336,4.8092774 17.405135,4.1301414 c 0.266939,-0.8173411 1.0557,-1.165765 1.785031,-0.7885099 0.467212,0.2416704 0.678641,0.6341003 0.679033,1.2603361 3.85e-4,0.5632789 -0.224593,1.0110703 -0.626535,1.2472132 -0.363405,0.2135025 -0.98631,0.207374 -1.294996,-0.01274 z m 1.047547,-0.6877196 c 0.170802,-0.1951555 0.171,-0.8413134 3.23e-4,-1.0555393 -0.349183,-0.4382945 -0.923686,-0.1033589 -0.923686,0.5385164 0,0.6177306 0.56054,0.9315915 0.923374,0.5170229 z m 1.810964,0.6913149 c -0.841337,-0.522803 -0.840069,-1.9352776 0.0023,-2.4561149 0.18493,-0.1143551 0.462597,-0.2070151 0.617038,-0.2059108 0.323523,0.00229 0.853329,0.2600905 1.020778,0.4966591 0.102818,0.1452638 0.09585,0.1799068 -0.06727,0.33437 -0.21934,0.2076872 -0.423852,0.2206572 -0.55546,0.035223 -0.162705,-0.2292512 -0.59039,-0.1720799 -0.775916,0.1037205 -0.457666,0.6803652 0.115758,1.4793391 0.748439,1.0428282 0.24988,-0.1724002 0.287771,-0.1759789 0.500625,-0.047269 0.126654,0.076587 0.230282,0.1721538 0.230282,0.2123684 0,0.096808 -1.029031,1.1096359 -1.243429,1.2387595 -0.26341,0.1586401 0.746436,-0.6955213 0.440345,-0.8857285 z m 2.195665,-0.067384 C 22.740603,5.5156054 22.691469,5.1919123 22.851388,4.7814819 22.959805,4.5032371 23.10735,4.439301 23.798978,4.3708553 L 24.328556,4.3184477 24.20488,4.1128071 C 24.10776,3.9513372 24.005506,3.9071674 23.728784,3.9071674 c -0.193832,0 -0.419242,0.041822 -0.500916,0.09293 -0.123927,0.077555 -0.168329,0.04807 -0.268418,-0.1782525 -0.06596,-0.1491503 -0.119922,-0.2904835 -0.119922,-0.3140739 0,-0.1398153 0.840278,-0.3491014 1.201033,-0.2991391 0.775335,0.1073782 0.97601,0.4972011 0.983003,1.9095269 l 0.0044,0.8911059 h -0.345202 c -0.18986,0 -0.358605,-0.047022 -0.374989,-0.1045009 -0.02236,-0.078409 -0.07149,-0.078409 -0.196774,0 -0.308037,0.1927771 -0.843837,0.1289589 -1.109165,-0.1321117 z m 1.166382,-0.4945517 c 0.202511,-0.2368063 0.197445,-0.3356555 -0.01952,-0.3811214 -0.30878,-0.0647 -0.64099,0.051026 -0.671085,0.2337811 -0.05715,0.347009 0.430842,0.4511184 0.690623,0.1473403 z m 1.424814,-1.165293 0.02112,-1.8964577 0.332177,-0.028104 0.332171,-0.028104 v 1.9245621 1.9245621 h -0.353299 -0.3533 z m 5.314801,0 0.02113,-1.8964577 h 0.312637 0.312635 l 0.02298,0.6105724 0.02298,0.6105717 0.286852,-0.1401533 c 0.410991,-0.2008055 0.846233,-0.1099572 1.144895,0.2389752 0.239616,0.2799509 0.242006,0.2922415 0.26786,1.3777102 L 33.3259,6.0092648 H 32.967633 32.609371 V 5.1410076 c 0,-0.7463973 -0.02195,-0.8939128 -0.156316,-1.0510491 -0.196339,-0.2295918 -0.399424,-0.2322026 -0.63615,-0.00818 -0.166499,0.1575641 -0.187162,0.2601987 -0.211601,1.0510483 l -0.02709,0.8764377 H 31.23246 30.886703 Z m 3.500748,1.7363737 c -0.84573,-0.496873 -0.841834,-1.9401603 0.0067,-2.4730639 0.84882,-0.5330988 1.945736,0.1605567 1.945736,1.2304236 0,0.4267959 -0.286725,0.9864557 -0.616377,1.2031085 -0.374383,0.2460479 -0.955267,0.263236 -1.336037,0.039535 z m 0.986704,-0.6963296 c 0.4269,-0.4293942 0.208703,-1.2456838 -0.332978,-1.2456838 -0.781345,0 -0.757906,1.4079906 0.02424,1.4565353 0.05133,0.00317 0.190263,-0.091697 0.30873,-0.2108515 z M 4.3745044,2.6653358 c -0.1867775,-0.09473 -0.293095,-0.2097912 -0.293095,-0.3171993 0,-0.1625813 0.011756,-0.1623068 0.3321749,0.00774 0.2020289,0.1072348 0.5005992,0.1754341 0.7620479,0.1740667 L 5.6055064,2.5276587 5.2311825,2.2998504 C 4.749338,2.0066049 4.6331963,1.7314143 4.8091644,1.2999091 5.015773,0.79327105 5.3570698,0.92965565 5.7881745,1.6911276 L 6.0057742,2.0754791 6.1749135,1.6683783 C 6.3580335,1.2276288 6.6469171,1.0536756 6.8570624,1.2576171 7.04372,1.4387645 6.9921573,1.7735119 6.7222199,2.133021 L 6.4711543,2.4673962 6.8199183,2.3995814 C 7.1871895,2.3281678 7.550928,2.145879 7.7666547,1.9251251 7.8663535,1.823102 7.9091518,1.8186021 7.9549868,1.9053271 8.0394991,2.0652352 7.5898763,2.50769 7.2303629,2.6183934 7.0674767,2.6685483 6.4242203,2.7330634 5.800903,2.7617565 4.8568487,2.8052153 4.6186568,2.7891041 4.3745044,2.6652742 Z M 5.604151,1.9193142 C 5.2522039,1.2716112 5.0193156,1.1378136 5.0193156,1.5833181 c 0,0.155132 0.078443,0.2803628 0.2540149,0.4055443 C 5.6489017,2.2566335 5.7732394,2.230494 5.604151,1.9193142 Z M 6.66907,1.7409745 C 6.721889,1.6255759 6.742445,1.5046716 6.714759,1.4722988 6.63558,1.3797048 6.4460022,1.6070485 6.3589777,1.8989653 6.2853967,2.1457893 6.2902677,2.1572898 6.4263517,2.0579161 6.5070337,1.9989971 6.6162552,1.8563732 6.66907,1.7409745 Z"
       id="path112"
       sodipodi:nodetypes="ssssscscsscccssscccsscccsccccscsccccsccsccscccccccccsscccccccsccccccsccccsccsscccccccssssscsccccccccccccccsccsccccsccsscsssssssssssscssssscccccccccccccssscssccscccccscssssssccsssccscsssscsccssccscccccccccccccccccssscccscsscccccsssccsscsscscccccscssscsssccccsscsccscc" />
    <text
       xml:space="preserve"
       style="font-style:normal;font-weight:normal;font-size:10.5833px;line-height:1.25;font-family:sans-serif;letter-spacing:0px;word-spacing:0px;fill:#000000;fill-opacity:1;stroke:none;stroke-width:0.264583"
       x="14.963373"
       y="4.2042027"
       id="text120"><tspan
         id="tspan118"
         x="14.963373"
         y="4.2042027"
         style="stroke-width:0.264583"
         sodipodi:role="line" /></text>
  </g>
</svg>
